<?xml version="1.0" encoding="utf-8"?>
<!-- Generator: Adobe Illustrator 23.1.1, SVG Export Plug-In . SVG Version: 6.00 Build 0)  -->
<svg version="1.1" id="Layer_1" xmlns="http://www.w3.org/2000/svg" xmlns:xlink="http://www.w3.org/1999/xlink" x="0px" y="0px"
	 viewBox="0 0 192 17" style="enable-background:new 0 0 192 17;" xml:space="preserve">
<style type="text/css">
	.st0{fill:#F3E8DC;}
	.st1{fill:#BB3748;}
</style>
<g>
	<path class="st0" d="M35.9,5.6c-0.8,0-1.6,0.1-2.4,0.1c-0.5,0-0.9-0.2-0.9-0.8c-0.1-0.6,0.3-0.8,0.8-0.9c1.6-0.3,3.2-0.7,4.9-1
		c0.7-0.1,1.5-0.3,2,0.5c0.3,0.6,0.1,1.3-0.6,2c-1.4,1.3-3,2.3-4.4,3.6c-0.5,0.5-1.1,0.9-1.7,1.5c1.7,0.6,3.3,1,5,1.5
		c0.2,0.1,0.4,0.1,0.6,0.2c0.7,0.2,1.1,0.9,1,1.6c-0.2,0.6-0.9,1.1-1.7,0.9c-0.3-0.1-0.5-0.2-0.8-0.3c-1.9-1-4-1.5-6.1-2
		c-0.3-0.1-0.5,0-0.6,0.3c-0.3,0.6-0.7,1-1.4,0.9c-0.7,0-1.1-0.5-1.4-1.1c-0.5-1.3-1-2.5-1.4-3.8c-0.1-0.2-0.2-0.4-0.4-0.6
		c-0.1,1.2,0,2.4,0.2,3.5c0,0.2,0.1,0.3,0.1,0.5c0.1,0.7-0.2,1.3-0.8,1.4c-0.6,0.1-1.2-0.3-1.3-1c-0.1-0.6-0.1-1.1-0.1-1.7
		c-0.1-2-0.2-4,0.1-5.9c0-0.2,0.1-0.5,0.2-0.7c0.2-0.6,0.6-1,1.2-1c0.7,0,1.1,0.3,1.3,0.9c0.5,1.1,0.7,2.3,1.1,3.5
		c0.2,0.6,0.4,1.2,0.8,1.9c0.1-1,0.2-1.8,0.2-2.6c0-1.7,0.1-3.4-0.1-5.2c-0.1-1.2,0.6-1.8,1.9-1.5c0.7,0.2,1,0.8,0.8,1.8
		c-0.4,2.1-0.5,4.1-0.6,6.2c0,0.3,0,0.7,0,1.1C33,8.2,34.6,7.1,35.9,5.6c0.1,0.1,0.1,0,0.2,0C36,5.6,35.9,5.6,35.9,5.6z"/>
	<path class="st0" d="M10.2,8.2c0.2,0.1,0.3,0.2,0.4,0.3c1.6,1,1.9,2.8,0.5,4.2c-0.9,0.8-2,1.4-3.1,1.8c-0.4,0.2-0.6,0.4-0.5,0.9
		c0.1,0.2,0.1,0.4,0.1,0.6c0,0.4-0.1,0.7-0.6,0.8c-0.4,0.1-0.8,0-1-0.5c-0.4-0.9-0.4-0.9-1.3-0.6c-0.3,0.1-0.7,0.2-1,0.1
		c-0.6-0.2-0.9-0.6-0.9-1.2c-0.1-0.6,0.3-1,0.8-1.1c0.4-0.1,0.8-0.2,1.2-0.2c0.4,0,0.4-0.2,0.3-0.6c-0.2-0.6-0.3-1.3-0.4-1.9
		c-0.1-0.5-0.1-0.9-0.8-0.9c-0.3,0-0.5-0.3-0.5-0.7c-0.1-0.3,0-0.7,0.3-0.8c0.5-0.2,0.5-0.5,0.4-0.9C4,7.2,4,6.9,4,6.7
		c0-0.8,0.4-1.3,1.2-1.3c0.7,0,1.1,0.3,1.3,1.1c0,0,0,0,0,0.1c0.2,1.2,0.2,1.2,1.3,0.7C8,7.2,8.2,7.1,8.4,7c0.5-0.3,1.1-0.5,1.1-1.2
		c0-0.7-0.7-0.8-1.2-1C7.4,4.4,6.4,4.3,5.4,4.2c-1.3-0.1-2.6,0-3.8,0c-1,0-1.5-0.5-1.5-1.4c0-0.9,0.5-1.4,1.4-1.3
		C4,1.7,6.6,1.9,9,2.8c0.5,0.2,1,0.5,1.5,0.8c1.3,1.1,1.4,2.8,0.2,4.1C10.5,7.9,10.4,8,10.2,8.2z M7.4,9.7c-0.3,0-0.6-0.1-0.6,0.4
		c0.1,0.8,0.2,1.5,0.3,2.3c0,0.2,0.1,0.3,0.4,0.2C8.3,12.3,9,12,9.6,11.4c0.5-0.5,0.4-1-0.2-1.3C8.7,9.8,8,9.8,7.4,9.7z"/>
	<path class="st0" d="M23.4,6.2c0,1.9,0.1,3.7,0.6,5.5c0.1,0.5,0.1,1-0.3,1.4c-0.3,0.3-0.7,0.3-1.1,0.1c-0.5-0.2-0.6-0.7-0.6-1.2
		c0-0.8,0-0.8-0.9-0.8c-1.8,0.1-1.8,0.1-1.8,1.8c0,0.5,0,1,0,1.6c0,0.9-0.5,1.4-1.4,1.4c-0.8,0-1.3-0.6-1.3-1.5
		c0-0.8,0.3-1.6,0.5-2.4c0.1-0.4,0-0.5-0.4-0.4c-0.8,0.2-1.6,0.4-2.4,0.7c-0.8,0.3-1.5,0-1.7-0.6c-0.2-0.7,0.2-1.3,1-1.5
		c1.2-0.3,2.5-0.6,3.7-0.7c0.4,0,0.6-0.2,0.7-0.6c0.6-1.9,1.3-3.8,2.2-5.7C20.4,2.9,20.6,2.4,21,2c0.3-0.4,0.8-0.6,1.3-0.5
		c0.5,0.1,0.8,0.5,1,1c0.3,1.1,0.1,2.2,0.1,3.2C23.4,5.9,23.4,6,23.4,6.2z M21.5,5.8c-0.1,0-0.1,0-0.2,0c-0.6,1.1-1,2.2-1.4,3.4
		c-0.1,0.3-0.1,0.4,0.3,0.4c0.4,0,0.9,0,1.3,0.1c0.3,0,0.4-0.1,0.3-0.3C21.7,8.1,21.6,7,21.5,5.8z"/>
	<path class="st0" d="M16.1,5.8c-0.9-0.1-1.8-0.1-2.7-0.2c-0.8-0.1-1.3-0.6-1.2-1.4c0.1-0.7,0.6-1,1.4-0.9c1.2,0.2,2.5,0.5,3.7,0.7
		c0.6,0.1,0.9,0.4,0.9,1c0,0.6-0.5,0.8-1.1,0.8C16.8,5.8,16.4,5.8,16.1,5.8z"/>
	<path class="st0" d="M14.3,6.8C15,6.9,15.7,6.9,16.4,7c0.4,0,0.8,0.2,0.8,0.8c0,0.5-0.3,0.8-0.8,0.8c-1,0.1-2.1,0.2-3.1,0.4
		C12.7,9,12.2,8.6,12.2,8c-0.1-0.6,0.3-1.1,1-1.2C13.5,6.8,13.9,6.8,14.3,6.8C14.3,6.8,14.3,6.8,14.3,6.8z"/>
	<path class="st1" d="M35.9,5.6c0.1,0,0.1,0,0.2,0C36,5.6,36,5.6,35.9,5.6C35.9,5.6,35.9,5.6,35.9,5.6z"/>
</g>
</svg>
